HIERARCHY
ROOT joint_Root
{
	OFFSET 0.0 0.0 0.0
	CHANNELS 6 Xposition Yposition Zposition Zrotation Xrotation Yrotation 
	JOINT Hips
	{
		OFFSET 4.5925 91.4895 -427.239
		CHANNELS 6 Xposition Yposition Zposition Zrotation Xrotation Yrotation 
		JOINT Spine
		{
			OFFSET 15.7357 0.0 0.0
			CHANNELS 6 Xposition Yposition Zposition Zrotation Xrotation Yrotation 
			JOINT Chest
			{
				OFFSET 8.98455 -0.406207 0.0
				CHANNELS 6 Xposition Yposition Zposition Zrotation Xrotation Yrotation 
				JOINT Neck
				{
					OFFSET 16.3773 0.0 0.0
					CHANNELS 6 Xposition Yposition Zposition Zrotation Xrotation Yrotation 
					JOINT Head
					{
						OFFSET 6.45672 0.0 0.0
						CHANNELS 6 Xposition Yposition Zposition Zrotation Xrotation Yrotation 
						End Site
						{
							OFFSET 0.0 0.0 0.0
						}
					}
				}
				JOINT Shoulder_L
				{
					OFFSET 12.9942 -0.242716 4.98039
					CHANNELS 6 Xposition Yposition Zposition Zrotation Xrotation Yrotation 
					JOINT UpperArm_L
					{
						OFFSET 5.34809 0.0 0.0
						CHANNELS 6 Xposition Yposition Zposition Zrotation Xrotation Yrotation 
						JOINT LowerArm_L
						{
							OFFSET 24.3286 1.87007e-05 0.0
							CHANNELS 6 Xposition Yposition Zposition Zrotation Xrotation Yrotation 
							JOINT Hand_L
							{
								OFFSET 22.2916 0.0 0.0
								CHANNELS 6 Xposition Yposition Zposition Zrotation Xrotation Yrotation 
								End Site
								{
									OFFSET 0.0 0.0 0.0
								}
							}
						}
					}
				}
				JOINT Shoulder_R
				{
					OFFSET 12.9945 -0.242716 -4.98039
					CHANNELS 6 Xposition Yposition Zposition Zrotation Xrotation Yrotation 
					JOINT UpperArm_R
					{
						OFFSET -5.34813 0.0 0.0
						CHANNELS 6 Xposition Yposition Zposition Zrotation Xrotation Yrotation 
						JOINT LowerArm_R
						{
							OFFSET -24.3289 0.000322201 0.0
							CHANNELS 6 Xposition Yposition Zposition Zrotation Xrotation Yrotation 
							JOINT Hand_R
							{
								OFFSET -22.2915 -0.000108084 0.0
								CHANNELS 6 Xposition Yposition Zposition Zrotation Xrotation Yrotation 
								End Site
								{
									OFFSET 0.0 0.0 0.0
								}
							}
						}
					}
				}
			}
		}
		JOINT UpperLeg_L
		{
			OFFSET -2.19248 -6.46944 0.0
			CHANNELS 6 Xposition Yposition Zposition Zrotation Xrotation Yrotation 
			JOINT LowerLeg_L
			{
				OFFSET 39.0811 0.0 -1.23785e-05
				CHANNELS 6 Xposition Yposition Zposition Zrotation Xrotation Yrotation 
				JOINT Foot_L
				{
					OFFSET 40.9854 0.0 -1.26872e-05
					CHANNELS 6 Xposition Yposition Zposition Zrotation Xrotation Yrotation 
					JOINT Toes_L
					{
						OFFSET 11.7543 0.0 0.0
						CHANNELS 6 Xposition Yposition Zposition Zrotation Xrotation Yrotation 
						End Site
						{
							OFFSET 0.0 0.0 0.0
						}
					}
				}
			}
		}
		JOINT UpperLeg_R
		{
			OFFSET -2.19251 6.46944 0.0
			CHANNELS 6 Xposition Yposition Zposition Zrotation Xrotation Yrotation 
			JOINT LowerLeg_R
			{
				OFFSET -39.0811 -0.00228153 -0.0401928
				CHANNELS 6 Xposition Yposition Zposition Zrotation Xrotation Yrotation 
				JOINT Foot_R
				{
					OFFSET -40.9854 0.0 0.0
					CHANNELS 6 Xposition Yposition Zposition Zrotation Xrotation Yrotation 
					JOINT Toes_R
					{
						OFFSET -11.7543 0.0 0.0
						CHANNELS 6 Xposition Yposition Zposition Zrotation Xrotation Yrotation 
						End Site
						{
							OFFSET 0.0 0.0 0.0
						}
					}
				}
			}
		}
	}
}
MOTION
Frames:	4
Frame Time:	0.0333333
0.000000 0.000000 0.000000 0.000000 0.000000 -0.000000 -2.461070 83.487100 0.351289 88.036400 -5.738880 9.477390 15.735700 0.000005 -0.000001 76.967400 81.326800 -75.896600 8.984550 -0.406207 -0.000000 9.186410 -3.877290 2.452010 16.377300 -0.000001 -0.000001 -2.978310 0.544902 2.521360 6.456720 -0.000001 -0.000000 -5.574480 7.345760 -5.043100 12.994200 -0.242716 4.980390 -91.157200 4.007130 -73.877400 5.348090 -0.000007 -0.000001 -61.974100 35.630200 -13.688000 24.328600 0.000019 0.000005 8.100560 15.052700 -28.725700 22.291600 -0.000001 0.000005 11.421200 5.260450 1.151730 12.994500 -0.242716 -4.980390 87.198600 10.632400 -75.146900 -5.348130 -0.000001 -0.000004 -61.691000 2.338320 -6.984690 -24.328900 0.000322 -0.000009 -0.464361 -5.044130 -5.231900 -22.291500 -0.000108 -0.000004 7.673330 5.196940 2.805600 -2.192480 -6.469440 -0.000000 -171.412000 -11.068800 -13.523200 39.081100 -0.000007 -0.000012 -0.459966 0.283705 58.334900 40.985400 -0.000006 -0.000013 -1.331830 4.092650 -84.531500 11.754300 -0.000000 0.000003 -0.000261 -0.002316 -16.664200 -2.192510 6.469440 -0.000001 179.528000 11.469400 166.170000 -39.081100 -0.002282 -0.040193 0.068180 -0.039963 58.404500 -40.985400 0.000008 0.000006 8.930010 5.707040 -84.530300 -11.754300 -0.000006 -0.000006 -0.406123 -0.502966 -17.719200
0.000000 0.000000 0.000000 0.000000 0.000000 -0.000000 -3.118310 84.946800 0.662505 87.768100 -3.440570 8.839940 15.735700 0.000005 -0.000001 77.245900 82.168400 -77.140700 8.984550 -0.406207 -0.000000 7.524120 -3.444800 0.436672 16.377300 -0.000001 -0.000001 -2.151000 0.091532 2.358380 6.456720 -0.000001 -0.000000 -4.954520 5.642130 -3.347740 12.994200 -0.242716 4.980390 -91.200800 4.000220 -73.275800 5.348090 -0.000007 -0.000001 -62.859900 33.302100 -13.247600 24.328600 0.000019 0.000005 7.904620 15.882800 -26.899600 22.291600 -0.000001 0.000005 11.825700 5.237900 1.750130 12.994500 -0.242716 -4.980390 87.546600 9.250640 -75.075100 -5.348130 -0.000001 -0.000004 -57.595200 -3.403460 -9.455390 -24.328900 0.000322 -0.000009 -0.242548 -3.525560 -3.921730 -22.291500 -0.000108 -0.000004 4.696640 5.175980 3.314910 -2.192480 -6.469440 -0.000000 -171.064000 -9.508550 -12.239700 39.081100 -0.000007 -0.000012 -0.431043 0.314548 53.881400 40.985400 -0.000006 -0.000013 -1.558830 4.912190 -82.197200 11.754300 -0.000000 0.000003 -0.000231 -0.002094 -16.656200 -2.192510 6.469440 -0.000001 -179.745000 12.775100 168.180000 -39.081100 -0.002282 -0.040193 0.068208 -0.047541 53.808200 -40.985400 0.000008 0.000006 8.700070 4.947960 -82.317200 -11.754300 -0.000006 -0.000006 -0.516421 -0.634615 -17.900400
0.000000 0.000000 0.000000 0.000000 0.000000 -0.000000 -3.538910 86.849000 0.958752 87.924500 -1.782230 7.706830 15.735700 0.000005 -0.000001 77.069400 83.264300 -78.067900 8.984550 -0.406207 -0.000000 5.344280 -2.986690 -1.855640 16.377300 -0.000001 -0.000001 -0.453876 -0.551746 2.286930 6.456720 -0.000001 -0.000000 -4.011270 3.655140 -1.371090 12.994200 -0.242716 4.980390 -91.136400 3.573740 -72.346100 5.348090 -0.000007 -0.000001 -64.460800 30.679400 -11.497800 24.328600 0.000019 0.000005 7.195580 15.312700 -25.550500 22.291600 -0.000001 0.000005 11.349400 5.238570 1.733410 12.994500 -0.242716 -4.980390 87.923000 7.526360 -74.523000 -5.348130 -0.000001 -0.000004 -51.368300 -11.095800 -14.988100 -24.328900 0.000322 -0.000009 -0.600115 -6.973270 -4.914790 -22.291500 -0.000108 -0.000004 5.738690 5.172480 3.405830 -2.192480 -6.469440 -0.000000 -171.376000 -8.596330 -10.375600 39.081100 -0.000007 -0.000012 -0.355357 0.326653 47.410800 40.985400 -0.000006 -0.000013 -1.817860 5.400180 -78.899800 11.754300 -0.000000 0.000003 -0.000188 -0.001757 -16.643900 -2.192510 6.469440 -0.000001 -179.465000 13.595800 170.348000 -39.081100 -0.002282 -0.040193 0.059988 -0.051925 47.533100 -40.985400 0.000008 0.000006 8.324440 4.769110 -79.086200 -11.754300 -0.000006 -0.000006 -0.566807 -0.694154 -18.188600
0.000000 0.000000 0.000000 0.000000 0.000000 -0.000000 -3.664400 88.578300 1.173570 88.169700 -0.720366 6.289060 15.735700 0.000005 -0.000001 75.812100 84.362400 -77.688800 8.984550 -0.406207 -0.000000 3.127080 -2.684710 -3.676550 16.377300 -0.000001 -0.000001 1.451140 -1.031930 2.175830 6.456720 -0.000001 -0.000000 -2.980300 1.819250 -0.224736 12.994200 -0.242716 4.980390 -91.078100 3.157510 -71.136500 5.348090 -0.000007 -0.000001 -65.549300 28.795500 -9.168370 24.328600 0.000019 0.000005 6.840030 14.632300 -25.400100 22.291600 -0.000001 0.000005 10.056100 5.244160 1.585930 12.994500 -0.242716 -4.980390 88.510600 5.477540 -74.766800 -5.348130 -0.000001 -0.000004 -44.296500 -20.761600 -22.953400 -24.328900 0.000322 -0.000009 -1.654350 -13.045100 -7.274220 -22.291500 -0.000108 -0.000004 8.142490 5.229090 1.996600 -2.192480 -6.469440 -0.000000 -171.984000 -8.051740 -8.629200 39.081100 -0.000007 -0.000012 -0.288153 0.334391 40.752900 40.985400 -0.000006 -0.000013 -2.071270 5.410400 -75.531400 11.754300 -0.000000 0.000003 -0.000133 -0.001308 -16.627400 -2.192510 6.469440 -0.000001 -179.429000 14.274600 172.102000 -39.081100 -0.002282 -0.040193 0.049526 -0.052683 41.279800 -40.985400 0.000008 0.000006 7.925150 5.177320 -75.656500 -11.754300 -0.000006 -0.000006 -0.646831 -0.787026 -18.555800
